<svg viewBox="0 0 180.5 334" width="351.975" height="651.3000000000001" fill="currentColor" color="#130303" xmlns="http://www.w3.org/2000/svg"><defs>
		<path id="key" d="m0 27 .9 4.9c.5 2.6-1.2 5.2-3.9 5.5-2.4.2-4.7-1.2-4.9-3.5-.1-1.4.9-3 2.2-3.1 1.2-.1 2.4.5 2.6 2.3.2 1.9-1.1 2.2-2.3 2.8.4.4 1.4.9 2.3.8 2.1-.2 3.7-2.4 3.2-4.6l-.9-4.8c-.4 0-.7.1-1.1.2-4.6.4-8.7-2.7-9.2-8.4-.4-4.4 4.3-9 6.7-11.2l-.4-2.1c-.7-3.4-.3-6.4 1.3-8.9.5-.8 1.5-2.3 2.1-2.3.5 0 2.5 2.6 2.8 6 .3 3.6-.8 7.6-4.2 10.5l.8 4.3c2.5-.2 5.8.8 6.2 5.2-.1 2.1-1.4 5.4-4.2 6.4zm-3.9-15.3c-.1.1-.2.1-.5.4-2 1.5-5.4 5.1-5.1 8.6.4 4.6 4.6 6.3 7 6.1.5 0 .9-.1 1.4-.2l-1.5-8c-1.5.2-2.7 1.4-2.6 3.1.1 1.5.7 1.8 1.6 2.6.4.4.1.6-.2.4-1.5-.6-2.7-2.3-2.9-3.9-.2-1.9 1.2-4.5 3.5-5.1zm3.9-11.8c0-.3-.2-1.6-1.3-1.5-2.4.2-3.3 4.9-2.6 8.2l.1.5c1.8-1.7 4-4.6 3.8-7.2zm-.2 26.2c1.8-.8 2.5-3.1 2.3-4.5-.1-1.6-1.6-3.4-3.8-3.3z"/>
		<path id="note" d="m0 0c.1 2-3.5 3.1-5.4 3.1-2 0-5.4-1.4-5.5-3.1-.1-2 3.2-3.1 5.3-3.1 2.5-.1 5.5 1.1 5.6 3.1zm-3.2.6c-.1-2-1-3.5-2.9-3.3-1.1.1-1.8.6-1.7 2.1.1 2 1 3.5 3 3.3 1.1-.2 1.7-.6 1.6-2.1z"/>
		<path id="sharp" d="m-13 1.5c.2-.1.3.5.3.9 0 .4 0 1-.3 1.1l-1 .4v3.4c0 .1-.2.1-.3.1-.1 0-.3 0-.3-.1v-3.1l-1.7.7v3.1c0 .1-.2.2-.3.2-.1 0-.3 0-.3-.2v-3l-1 .4c-.2.1-.2-.6-.2-1 0-.4 0-1 .2-1l1-.4v-4l-1 .4c-.1.1-.2-.6-.2-1 0-.4 0-1 .2-1l1-.4v-3.3c0-.1.2-.3.3-.3.2 0 .4.1.4.3v3l1.7-.7v-3c0-.1.2-.3.3-.3.2 0 .4.1.4.3v2.8l1-.4c.3-.1.3.5.3.9 0 .4 0 1-.3 1.1l-1 .4v3.9zm-3.3 1.2 1.7-.7v-3.9l-1.7.7z"/>
		<path id="double-sharp" d="m-15 0c.6-.6 1.4-.7 2.2-.7.1 0 .3-.2.3-.3l.2-2.2c0-.1-.1-.2-.2-.2l-2.2.2c-.1 0-.3.2-.3.3 0 .82-.1 1.6-.7 2.2-.6-.6-.7-1.4-.7-2.2 0-.1-.2-.3-.3-.3l-2.2-.2c-.1 0-.2.1-.2.2l.2 2.2c0 .1.2.3.3.3.8 0 1.6.1 2.2.7-.6.6-1.4.7-2.2.7-.1 0-.3.2-.3.3l-.2 2.2c0 .1.1.2.2.2l2.2-.2c.1 0 .3-.2.3-.3 0-.8.1-1.6.7-2.2.6.6.7 1.4.7 2.2 0 .1.2.3.3.3l2.2.2c.1 0 .2-.1.2-.2l-.2-2.2c0-.1-.2-.3-.3-.3-.8 0-1.6-.1-2.2-.7z"/>
		<path id="flat" d="m-17-1.7c.9-.6 1.8-1.2 2.6-1.1.7.1 1.6.7 1.6 1.9 0 2-1.3 2.7-2.8 3.9-.7.5-2 2-2 .9v-12.4c0-.2.1-.3.3-.3.2 0 .3.1.3.3zm0 4.7c1.1-.8 1.8-1 2.3-2.2.3-.9.1-1.9-.5-2.2-.6-.3-1.2.3-1.8.7z"/>
		<g id="double-flat" ><use href="#flat" transform="translate(-4)"/><use href="#flat"/></g>
		<ellipse id="dot" color="#7C3626" ry="4" rx="4" cy="0" cx="29.5"/>
		<ellipse id="circle" color="#7C3626" ry="3.5" rx="3.5" cy="0" cx="29.5" fill="none" stroke="currentColor"/>
		<rect id="rect-fill" color="#7C3626" width="7.5" height="7.5" x="25.75" y="-3.75"/>
		<rect id="rect-outline" color="#7C3626" width="6.5" height="6.5" x="26.25" y="-3.25" fill="none" stroke="currentColor"/>
	</defs><rect width="100%" height="100%" fill="#FFCDBC"/><g transform="translate(1,1)"><g transform="translate(0,0)"><g transform="translate(0, 9)">
		<path stroke="currentColor" stroke-linecap="square"
			d="M 0,0 V 24
			M 177.5,0 V 24
			M 0,0 H 177.5
			M 0,6 H 177.5
			M 0,12 H 177.5
			M 0,18 H 177.5
			M 0,24 H 177.5"/>
		<use href="#key" transform="translate(15, -3.5)"/><g transform="translate(5)"><g transform="translate(40, 24)"><use href="#double-flat" color=""/><use href="#note" color=""/></g><g transform="translate(0,30)"><g transform="translate(5,10)"><use href="#dot"/></g><g transform="translate(5,20)"><use href="#dot"/></g><g transform="translate(5,30)"><use href="#dot"/></g><g transform="translate(5,45)"><use href="#dot"/></g><g transform="translate(5,55)"><use href="#dot"/></g><g transform="translate(5,65)"><use href="#dot"/></g><g transform="translate(5,80)"><use href="#rect-outline"/></g></g></g><g transform="translate(35)"><g transform="translate(40, 24)"><use href="#flat" color=""/><use href="#note" color=""/></g><g transform="translate(0,30)"><g transform="translate(5,10)"><use href="#dot"/></g><g transform="translate(5,20)"><use href="#dot"/></g><g transform="translate(5,30)"><use href="#dot"/></g><g transform="translate(5,45)"><use href="#dot"/></g><g transform="translate(5,55)"><use href="#dot"/></g><g transform="translate(5,65)"><use href="#dot"/></g><g transform="translate(5,80)"><use href="#rect-fill"/></g></g></g><g transform="translate(65)"><g transform="translate(40, 24)"><use href="#note" color=""/></g><g transform="translate(0,30)"><g transform="translate(5,10)"><use href="#dot"/></g><g transform="translate(5,20)"><use href="#dot"/></g><g transform="translate(5,30)"><use href="#dot"/></g><g transform="translate(5,45)"><use href="#dot"/></g><g transform="translate(5,55)"><use href="#dot"/></g><g transform="translate(5,65)"><use href="#circle"/></g><g transform="translate(5,80)"><use href="#rect-fill"/></g></g></g><g transform="translate(95)"><g transform="translate(40, 24)"><use href="#sharp" color=""/><use href="#note" color=""/></g><g transform="translate(-5,30)"><g transform="translate(5,10)"><use href="#dot"/></g><g transform="translate(5,20)"><use href="#dot"/></g><g transform="translate(5,30)"><use href="#dot"/></g><g transform="translate(5,45)"><use href="#dot"/></g><g transform="translate(5,55)"><use href="#circle"/></g><g transform="translate(5,65)"><use href="#circle"/></g><g transform="translate(5,80)"><use href="#rect-fill"/></g><g transform="translate(15,10)"><use href="#dot"/></g><g transform="translate(15,20)"><use href="#dot"/></g><g transform="translate(15,30)"><use href="#dot"/></g><g transform="translate(15,45)"><use href="#circle"/></g><g transform="translate(15,55)"><use href="#circle"/></g><g transform="translate(15,65)"><use href="#dot"/></g><g transform="translate(15,80)"><use href="#rect-outline"/></g></g></g><g transform="translate(125)"><g transform="translate(40, 24)"><use href="#double-sharp" color=""/><use href="#note" color=""/></g><g transform="translate(0,30)"><g transform="translate(5,10)"><use href="#dot"/></g><g transform="translate(5,20)"><use href="#dot"/></g><g transform="translate(5,30)"><use href="#dot"/></g><g transform="translate(5,45)"><use href="#circle"/></g><g transform="translate(5,55)"><use href="#circle"/></g><g transform="translate(5,65)"><use href="#dot"/></g><g transform="translate(5,80)"><use href="#rect-fill"/></g></g></g></g></g><g transform="translate(0,149)"><g transform="translate(0, 28)">
		<path stroke="currentColor" stroke-linecap="square"
			d="M 0,0 V 24
			M 177.5,0 V 24
			M 0,0 H 177.5
			M 0,6 H 177.5
			M 0,12 H 177.5
			M 0,18 H 177.5
			M 0,24 H 177.5"/>
		<use href="#key" transform="translate(15, -3.5)"/><g transform="translate(5)"><path stroke="currentColor" d="M 27.5,30 h 14"/><path stroke="currentColor" d="M 27.5,36 h 14"/><path stroke="currentColor" d="M 27.5,42 h 14"/><path stroke="currentColor" d="M 27.5,48 h 14"/><path stroke="currentColor" d="M 27.5,54 h 14"/><path stroke="currentColor" d="M 27.5,60 h 14"/><g transform="translate(40, 63)"><use href="#double-flat" color=""/><use href="#note" color=""/></g><g transform="translate(0,71)"><g transform="translate(5,10)"><use href="#circle"/></g><g transform="translate(5,20)"><use href="#circle"/></g><g transform="translate(5,30)"><use href="#circle"/></g><g transform="translate(5,45)"><use href="#circle"/></g><g transform="translate(5,55)"><use href="#circle"/></g><g transform="translate(5,65)"><use href="#circle"/></g><g transform="translate(5,80)"><use href="#rect-fill"/></g></g></g><g transform="translate(35)"><path stroke="currentColor" d="M 27.5,30 h 14"/><path stroke="currentColor" d="M 27.5,36 h 14"/><path stroke="currentColor" d="M 27.5,42 h 14"/><g transform="translate(40, 42)"><use href="#flat" color=""/><use href="#note" color=""/></g><g transform="translate(0,71)"><g transform="translate(5,10)"><use href="#circle"/></g><g transform="translate(5,20)"><use href="#circle"/></g><g transform="translate(5,30)"><use href="#circle"/></g><g transform="translate(5,45)"><use href="#circle"/></g><g transform="translate(5,55)"><use href="#circle"/></g><g transform="translate(5,65)"><use href="#dot"/></g><g transform="translate(5,80)"><use href="#rect-fill"/></g></g></g><g transform="translate(65)"><g transform="translate(40, 21)"><use href="#note" color=""/></g><g transform="translate(0,71)"><g transform="translate(5,10)"><use href="#circle"/></g><g transform="translate(5,20)"><use href="#circle"/></g><g transform="translate(5,30)"><use href="#circle"/></g><g transform="translate(5,45)"><use href="#circle"/></g><g transform="translate(5,55)"><use href="#dot"/></g><g transform="translate(5,65)"><use href="#dot"/></g><g transform="translate(5,80)"><use href="#rect-fill"/></g></g></g><g transform="translate(95)"><g transform="translate(40, 0)"><use href="#sharp" color=""/><use href="#note" color=""/></g><g transform="translate(0,71)"><g transform="translate(5,10)"><use href="#circle"/></g><g transform="translate(5,20)"><use href="#circle"/></g><g transform="translate(5,30)"><use href="#circle"/></g><g transform="translate(5,45)"><use href="#dot"/></g><g transform="translate(5,55)"><use href="#dot"/></g><g transform="translate(5,65)"><use href="#dot"/></g><g transform="translate(5,80)"><use href="#rect-fill"/></g></g></g><g transform="translate(125)"><path stroke="currentColor" d="M 27.5,-6 h 14"/><path stroke="currentColor" d="M 27.5,-12 h 14"/><path stroke="currentColor" d="M 27.5,-18 h 14"/><g transform="translate(40, -21)"><use href="#double-sharp" color=""/><use href="#note" color=""/></g><g transform="translate(0,71)"><g transform="translate(5,10)"><use href="#circle"/></g><g transform="translate(5,20)"><use href="#circle"/></g><g transform="translate(5,30)"><use href="#dot"/></g><g transform="translate(5,45)"><use href="#dot"/></g><g transform="translate(5,55)"><use href="#dot"/></g><g transform="translate(5,65)"><use href="#dot"/></g><g transform="translate(5,80)"><use href="#rect-fill"/></g></g></g></g></g></g></svg>